<svg width="65" height="65" viewBox="0 0 65 65" fill="none" xmlns="http://www.w3.org/2000/svg">
<g clip-path="url(#clip0_6994_18767)">
<rect width="65" height="65" rx="8.125" fill="#09090B"/>
<path d="M-19.2969 6.09375C22.9531 58.5 67.3698 27.9297 84.2969 6.09375" stroke="#9E6AFF" stroke-width="6.09375" stroke-linecap="round"/>
<path d="M34.9375 26.9937L31.6469 41.375H26.0406L24.375 33.2094L22.7094 41.375H17.1031L13.8125 26.9937H18.6672L19.9672 36.0531L21.9172 26.9937H26.8328L28.7828 36.0531L30.0828 26.9937H34.9375ZM51.3827 26.9937L48.0921 41.375H42.4858L40.8202 33.2094L39.1546 41.375H33.5483L30.2577 26.9937H35.1124L36.4124 36.0531L38.3624 26.9937H43.278L45.228 36.0531L46.528 26.9937H51.3827Z" fill="white"/>
</g>
<defs>
<clipPath id="clip0_6994_18767">
<rect width="65" height="65" rx="8.125" fill="white"/>
</clipPath>
</defs>
</svg>
