<svg width="375" height="441" viewBox="0 0 375 441" fill="none" xmlns="http://www.w3.org/2000/svg">
<path d="M422.934 551.163C427.984 547.924 417.829 554.351 422.934 551.163C463.948 525.438 474.109 482.135 534.18 454.759C577.197 435.143 635.66 403.928 654.724 359.767C678.97 303.671 672.253 237.362 634.448 190.176C613.572 164.11 570.959 151.868 546.107 130.252C517.671 105.492 485.162 75.8531 453.584 55.2359C397.34 18.4837 350.779 -6.73572 282.656 1.96425C228.075 8.94112 187.609 38.3928 132.653 38.6678C104.818 38.819 65.8375 28.6434 38.0052 28.901C-1.78659 29.2896 -42.1665 46.4045 -70.0039 75.6137C-102.843 110.085 -108.574 155.382 -97.0614 200.34C-88.9755 231.882 -72.499 259.873 -63.0657 290.701C-53.2174 322.82 -48.0294 356.22 -39.6107 388.745C-35.2373 405.621 -29.9271 422.433 -20.8815 437.187C-2.10317 467.786 37.6321 485.379 71.5045 491.978C108.644 499.193 145.409 494.423 181.272 507.974C216.791 521.383 248.003 543.649 282.233 559.763C308.051 571.919 336.961 580.094 365.746 576.043C387.019 573.031 405.145 562.466 422.934 551.163Z" fill="#B9DEFF" fill-opacity="0.8"/>
</svg>
