<svg width="375" height="458" viewBox="0 0 375 458" fill="none" xmlns="http://www.w3.org/2000/svg">
<path d="M189.159 30.4198C109.309 -1.19669 16.4642 -7.69141 -67.9253 10.9026C-129.646 24.5185 -192.717 51.2226 -240.159 91.4767C-306.749 147.951 -331.096 232.119 -304.315 312.528C-286.318 366.563 -249.009 413.575 -204.067 451.06C-137.576 506.546 -53.2188 542.712 34.8885 553.525C122.996 564.339 214.525 549.734 294.111 512.183C330.795 494.875 365.373 472.49 391.957 442.983C418.573 413.509 436.899 376.486 438.774 337.881C440.287 306.792 431.339 276.032 419.396 247.053C379.751 150.655 291.216 70.8387 189.159 30.4198Z" fill="#9E6AFF" fill-opacity="0.5"/>
<path d="M298.942 63.967C319.326 78.0801 341.354 96.0455 365.273 105.251C371.765 107.75 379.584 108.574 386.143 105.546C405.437 96.7162 400.566 76.7043 392.898 63.3876C382.672 45.622 367.031 35.5324 347.397 26.8991C337.725 22.657 327.65 18.5807 316.784 17.9214C305.917 17.2622 293.953 20.5751 286.99 28.6747C275.72 41.7812 286.698 55.4707 297.937 63.2658C298.252 63.5046 298.597 63.7358 298.942 63.967Z" fill="#9E6AFF" fill-opacity="0.5"/>
</svg>
