<svg width="375" height="430" viewBox="0 0 375 430" fill="none" xmlns="http://www.w3.org/2000/svg">
<path d="M-163.387 277.846C-159.988 252.6 -157.362 229.239 -167.868 205.971C-178.869 181.529 -183.535 156.345 -181.032 131.686C-170.834 31.6915 -70.7164 -7.58318 12.839 1.19261C42.7817 4.34447 69.5417 14.7889 97.105 26.9637C124.885 39.2622 163.85 49.9538 192.866 35.6159C214.867 24.7389 259.426 2.55224 284.332 9.04137C306.395 14.7889 317.767 11.1735 340.88 45.535C364.519 80.6073 318.323 143.706 350.367 175.194C362.418 187.029 376.54 196.145 390.167 205.879C415.66 224.048 439.979 244.813 458.086 271.141C499.431 331.181 492.17 413.531 442.976 465.969C404.196 507.314 346.381 524.001 292.675 513.464C266.193 508.272 219.194 498.106 192.557 494.707C137.523 487.692 100.72 487.971 48.2202 499.527C-4.92886 511.239 -53.5974 531.51 -110.547 521.621C-141.942 516.152 -171.7 499.744 -188.726 471.809C-228.742 406.053 -172.101 343.077 -163.387 277.846Z" fill="#FFC76F" fill-opacity="0.5"/>
</svg>
