<svg width="375" height="477" viewBox="0 0 375 477" fill="none" xmlns="http://www.w3.org/2000/svg">
<path d="M-229.585 264.394C-225.653 240.399 -222.538 218.217 -232.671 195.854C-243.318 172.372 -247.552 148.286 -244.497 124.835C-234.576 48.3164 -154.572 1.74637 -78.7426 0.0540089C-36.9713 -0.882832 5.1933 10.3895 40.1591 32.2088C69.3778 43.3602 112.571 50.7341 136.073 40.3381C158.426 30.4258 183.319 17.2798 208.273 24.2608C233.59 31.3626 252.01 53.6655 258.332 78.5975C261.931 92.7408 261.841 107.579 264.623 121.934C270.37 151.701 288.882 178.779 314.592 194.977C321.942 199.601 329.806 203.379 337.217 207.912C344.234 212.203 361.203 227.676 376.024 242.121C381.075 246.262 385.915 250.734 390.452 255.57C415.254 281.983 428.593 317.824 426.779 353.062C421.455 455.207 324.059 517.069 227.601 497.426C106.188 472.7 56.7217 551.602 -13.1127 551.602C-82.9471 551.602 -123.418 508.124 -180.918 497.637C-212.586 491.865 -242.41 475.637 -259.107 448.71C-298.337 385.307 -239.748 326.377 -229.585 264.394Z" fill="#B9DEFF" fill-opacity="0.4"/>
</svg>
